<?xml version="1.0" ?><!DOCTYPE svg  PUBLIC '-//W3C//DTD SVG 1.1//EN'  'http://www.w3.org/Graphics/SVG/1.1/DTD/svg11.dtd'><svg height="512px" style="enable-background:new 0 0 512 512;" version="1.1" viewBox="0 0 512 512" width="512px" xml:space="preserve" xmlns="http://www.w3.org/2000/svg" xmlns:xlink="http://www.w3.org/1999/xlink"><g id="B_-_150_x2C__puzzle_x2C__Business_x2C__jigsaw_x2C__match_x2C__piece_x2C__success"><g><path d="M148.188,301.277c-2.105,0-3.775-1.67-3.775-3.769    c0-0.525,0.145-1.003,0.335-1.48c0.672-1.767,1.145-3.628,1.526-5.487c0.335-1.814,0.48-3.818,0.48-5.872    c0-8.924-3.625-16.99-9.452-22.813c-5.821-5.822-13.931-9.449-22.811-9.449c-8.971,0-17.035,3.58-22.811,9.449    c-5.92,5.822-9.498,13.889-9.498,22.813c0,2.102,0.138,4.058,0.52,5.872c0.336,1.907,0.862,3.815,1.533,5.63    c0.763,1.958-0.19,4.152-2.15,4.868c-0.336,0.143-0.619,0.19-0.955,0.238l0,0h-0.046h-0.052l0,0h-0.047l0,0h-0.382H40.47v98.888    c0,13.507,5.539,25.772,14.457,34.697c8.88,8.877,21.193,14.414,34.703,14.414h98.839v-35.175l-1.815,0.382    c-2.387,0.43-4.868,0.668-7.255,0.668c-10.879,0-20.712-4.391-27.967-11.453l-0.191-0.239    c-7.254-7.207-11.694-17.181-11.694-28.157c0-11.025,4.44-21,11.694-28.208c7.209-7.205,17.181-11.644,28.159-11.644    c2.387,0,4.868,0.19,7.255,0.668l1.815,0.335v-35.176h-40.188H148.188L148.188,301.277z M471.53,172.897l-49.397-85.622    c-6.774-11.691-17.705-19.567-29.874-22.86c-12.123-3.245-25.487-1.909-37.13,4.773l-85.816,49.538l17.66,30.45l1.335-1.241    c1.815-1.528,3.821-2.959,5.966-4.2c9.498-5.489,20.377-6.585,30.211-3.961s18.713,9.02,24.244,18.564    c5.439,9.547,6.591,20.38,3.967,30.21c-2.631,9.88-9.07,18.709-18.568,24.198c-2.197,1.289-4.394,2.292-6.584,3.055l-1.815,0.621    l17.608,30.448l92.256-53.263l2.098-1.193l0,0l0.098-0.047L471.53,172.897z M445.279,204.539    c-1.762-1.719-3.677-3.245-5.775-4.486l-48.962,28.252c0.093,2.437,0.382,4.869,1.046,7.255c0.717,3.007,1.907,5.917,3.532,8.734    c4.584,7.971,11.932,13.363,19.995,15.607c8.07,2.289,16.943,1.479,24.626-2.959c7.688-4.438,12.839-11.694,14.892-19.806    c2.053-8.113,1.052-17.087-3.48-25.009l-0.098-0.143C449.43,209.167,447.522,206.686,445.279,204.539z M196.007,341.56    c0,2.1-1.67,3.771-3.769,3.771h-0.099h-0.092h-0.046h-0.053l0,0h-0.046h-0.046h-0.046l0,0h-0.099l0,0v-0.05h-0.092l0,0l0,0h-0.052    l0,0h-0.047h-0.046l0,0l-0.045-0.048h-0.053l0,0h-0.046l0,0l-0.092-0.047h-0.052l0,0h-0.046l0,0h-0.046l-0.046-0.048l0,0h-0.053    l-0.092-0.048h-0.053l0,0l0,0l-0.091-0.048l0,0l0,0l-0.099-0.047c-1.717-0.621-3.526-1.146-5.341-1.479    c-1.908-0.335-3.822-0.525-5.92-0.525c-8.879,0-16.99,3.628-22.811,9.45c-5.875,5.871-9.453,13.936-9.453,22.861    c0,8.923,3.578,16.99,9.453,22.812l0.19,0.191c5.775,5.728,13.741,9.307,22.621,9.307c2.098,0,4.012-0.19,5.92-0.525    c1.907-0.334,3.723-0.907,5.531-1.574c2.006-0.765,4.204,0.238,4.92,2.146c0.145,0.478,0.237,0.907,0.237,1.384v0.097v0.096v0.19    v39.852h98.84c13.51,0,25.823-5.537,34.696-14.414c8.926-8.925,14.463-21.19,14.463-34.697v-98.888H308.83l0.381,1.863    c0.436,2.387,0.672,4.771,0.672,7.205c0,11.024-4.486,20.951-11.649,28.207c-7.248,7.205-17.227,11.644-28.25,11.644    c-10.833,0-20.712-4.341-27.875-11.454l-0.283-0.189c-7.209-7.256-11.649-17.183-11.649-28.207c0-2.387,0.19-4.818,0.671-7.205    l0.381-1.863h-35.222V341.56z M188.469,145.739H89.63c-13.51,0-25.823,5.537-34.703,14.461    c-8.918,8.877-14.457,21.191-14.457,34.698v98.84h35.176l-0.381-1.813c-0.434-2.387-0.671-4.821-0.671-7.256    c0-10.976,4.486-20.903,11.642-28.158c7.255-7.206,17.279-11.692,28.257-11.692c10.978,0,20.949,4.486,28.159,11.692    c7.208,7.207,11.641,17.183,11.641,28.158c0,2.435-0.19,4.869-0.618,7.256l-0.427,1.813h35.222v-41.426    c0-0.621,0.191-1.241,0.474-1.814c1.052-1.813,3.341-2.481,5.157-1.479c2.289,1.287,4.769,2.29,7.399,3.005    c2.479,0.621,5.149,1.003,7.919,1.003c8.926,0,16.989-3.723,22.811-9.737c5.874-6.012,9.498-14.316,9.498-23.528    c0-9.212-3.624-17.563-9.498-23.578c-5.821-5.965-13.884-9.688-22.811-9.688c-2.77,0-5.439,0.335-7.919,1.003    c-2.533,0.621-4.92,1.622-7.163,2.815c-0.619,0.382-1.336,0.621-2.098,0.621c-2.099,0-3.77-1.671-3.77-3.771V145.739z" style="fill-rule:evenodd;clip-rule:evenodd;"/></g></g><g id="Layer_1"/></svg>